# xmcd
# Track frame offsets:
# 150
# 12067
# 25402
# 41914
# 54327
# 71965
# 84977
# 100717
# 113435
# 128367
# 142660
# 156350
#
# Disc length: 2353 seconds
# Revision: 0
# Processed by: cddbd v1.4PL0 Copyright (c) Steve Scherf et al.
# Submitted via: VisiTrax 2.9.5.180 - For more info visit www.synapsa.com
#
DISCID=8c092f0c
DTITLE=Red Kilby - In high gear
DYEAR=1900
DGENRE=
TTITLE0=Sawdust whiskey and neon saloon
TTITLE1=Pride got in the way
TTITLE2=Acting like fools
TTITLE3=High geared honky tonkin
TTITLE4=Colorado ladies
TTITLE5=Honey do
TTITLE6=Linda
TTITLE7=Bad habits
TTITLE8=Women in cowboy hats
TTITLE9=Talkin' to myself
TTITLE10=Electric attraction
TTITLE11=Is it me
EXTD=
EXTT0=
EXTT1=
EXTT2=
EXTT3=
EXTT4=
EXTT5=
EXTT6=
EXTT7=
EXTT8=
EXTT9=
EXTT10=
EXTT11=
PLAYORDER=
